<svg width="1em" height="1em" viewBox="0 0 16 16" fill="none" xmlns="http://www.w3.org/2000/svg">
<path d="M12 2.66669H3.99996C3.26358 2.66669 2.66663 3.26364 2.66663 4.00002V12C2.66663 12.7364 3.26358 13.3334 3.99996 13.3334H12C12.7363 13.3334 13.3333 12.7364 13.3333 12V4.00002C13.3333 3.26364 12.7363 2.66669 12 2.66669Z" stroke="currentColor" stroke-width="1.33333" stroke-linecap="round" stroke-linejoin="round"/>
<path d="M9.33333 6H6.66667C6.29848 6 6 6.29848 6 6.66667V9.33333C6 9.70152 6.29848 10 6.66667 10H9.33333C9.70152 10 10 9.70152 10 9.33333V6.66667C10 6.29848 9.70152 6 9.33333 6Z" stroke="currentColor" stroke-width="1.33333" stroke-linecap="round" stroke-linejoin="round"/>
<path d="M10 1.33331V2.66665" stroke="currentColor" stroke-width="1.33333" stroke-linecap="round" stroke-linejoin="round"/>
<path d="M10 13.3333V14.6666" stroke="currentColor" stroke-width="1.33333" stroke-linecap="round" stroke-linejoin="round"/>
<path d="M1.33337 10H2.66671" stroke="currentColor" stroke-width="1.33333" stroke-linecap="round" stroke-linejoin="round"/>
<path d="M1.33337 6H2.66671" stroke="currentColor" stroke-width="1.33333" stroke-linecap="round" stroke-linejoin="round"/>
<path d="M13.3334 10H14.6667" stroke="currentColor" stroke-width="1.33333" stroke-linecap="round" stroke-linejoin="round"/>
<path d="M13.3334 6H14.6667" stroke="currentColor" stroke-width="1.33333" stroke-linecap="round" stroke-linejoin="round"/>
<path d="M6 1.33331V2.66665" stroke="currentColor" stroke-width="1.33333" stroke-linecap="round" stroke-linejoin="round"/>
<path d="M6 13.3333V14.6666" stroke="currentColor" stroke-width="1.33333" stroke-linecap="round" stroke-linejoin="round"/>
</svg>
