<svg width="1em" height="1em" viewBox="0 0 14 14" fill="none" xmlns="http://www.w3.org/2000/svg">
<path d="M4.50158 12.8143C4.33073 13.0082 4.0403 13.0399 3.8316 12.8875L2.57867 11.9727C2.37217 11.8219 2.31269 11.5396 2.4408 11.3184L4.0188 8.59273C4.16661 8.33742 4.0624 8.01031 3.79415 7.88755L0.982432 6.60083C0.751614 6.49521 0.636572 6.23339 0.714883 5.99193L1.19242 4.51953C1.27229 4.27326 1.52694 4.1287 1.77934 4.18633L4.78072 4.87169C5.07431 4.93873 5.36011 4.73293 5.38962 4.43324L5.69908 1.29102C5.72429 1.0351 5.93951 0.840027 6.19668 0.840027H7.77882C8.03599 0.840027 8.25121 1.0351 8.27642 1.29102L8.58588 4.43324C8.61539 4.73293 8.90119 4.93873 9.19478 4.87169L12.1962 4.18633C12.4486 4.1287 12.7032 4.27326 12.7831 4.51953L13.2597 5.98922C13.3384 6.23183 13.2219 6.49477 12.9893 6.59944L10.1297 7.88628C9.8571 8.00893 9.75232 8.34171 9.90542 8.59838L11.5266 11.3162C11.6589 11.538 11.6006 11.8239 11.392 11.9762L10.146 12.886C9.93641 13.039 9.64462 13.0063 9.47415 12.8107L7.37836 10.4053C7.17981 10.1774 6.82606 10.1764 6.62624 10.4032L4.50158 12.8143Z" fill="currentColor"/>
</svg>
