<svg width="1em" height="1em" viewBox="0 0 16 16" fill="none" xmlns="http://www.w3.org/2000/svg">
<path d="M14 10.6667H11.3334C10.9652 10.6667 10.6667 10.9652 10.6667 11.3334V14C10.6667 14.3682 10.9652 14.6667 11.3334 14.6667H14C14.3682 14.6667 14.6667 14.3682 14.6667 14V11.3334C14.6667 10.9652 14.3682 10.6667 14 10.6667Z" stroke="currentColor" stroke-width="1.33333" stroke-linecap="round" stroke-linejoin="round"/>
<path d="M4.66665 10.6667H1.99998C1.63179 10.6667 1.33331 10.9652 1.33331 11.3334V14C1.33331 14.3682 1.63179 14.6667 1.99998 14.6667H4.66665C5.03484 14.6667 5.33331 14.3682 5.33331 14V11.3334C5.33331 10.9652 5.03484 10.6667 4.66665 10.6667Z" stroke="currentColor" stroke-width="1.33333" stroke-linecap="round" stroke-linejoin="round"/>
<path d="M9.33333 1.33331H6.66667C6.29848 1.33331 6 1.63179 6 1.99998V4.66665C6 5.03484 6.29848 5.33331 6.66667 5.33331H9.33333C9.70152 5.33331 10 5.03484 10 4.66665V1.99998C10 1.63179 9.70152 1.33331 9.33333 1.33331Z" stroke="currentColor" stroke-width="1.33333" stroke-linecap="round" stroke-linejoin="round"/>
<path d="M3.33331 10.6667V8.66667C3.33331 8.48986 3.40355 8.32029 3.52858 8.19526C3.6536 8.07024 3.82317 8 3.99998 8H12C12.1768 8 12.3464 8.07024 12.4714 8.19526C12.5964 8.32029 12.6666 8.48986 12.6666 8.66667V10.6667" stroke="currentColor" stroke-width="1.33333" stroke-linecap="round" stroke-linejoin="round"/>
<path d="M8 7.99998V5.33331" stroke="currentColor" stroke-width="1.33333" stroke-linecap="round" stroke-linejoin="round"/>
</svg>
