<svg width="1em" height="1em" viewBox="0 0 16 16" fill="none" xmlns="http://www.w3.org/2000/svg">
<path d="M12 1.33331H4.00002C3.26364 1.33331 2.66669 1.93027 2.66669 2.66665V13.3333C2.66669 14.0697 3.26364 14.6666 4.00002 14.6666H12C12.7364 14.6666 13.3334 14.0697 13.3334 13.3333V2.66665C13.3334 1.93027 12.7364 1.33331 12 1.33331Z" stroke="currentColor" stroke-width="1.33333" stroke-linecap="round" stroke-linejoin="round"/>
<path d="M8 4H8.00667" stroke="currentColor" stroke-width="1.33333" stroke-linecap="round" stroke-linejoin="round"/>
<path d="M7.99998 12C9.47274 12 10.6666 10.8061 10.6666 9.33335C10.6666 7.86059 9.47274 6.66669 7.99998 6.66669C6.52722 6.66669 5.33331 7.86059 5.33331 9.33335C5.33331 10.8061 6.52722 12 7.99998 12Z" stroke="currentColor" stroke-width="1.33333" stroke-linecap="round" stroke-linejoin="round"/>
<path d="M8 9.33331H8.00667" stroke="currentColor" stroke-width="1.33333" stroke-linecap="round" stroke-linejoin="round"/>
</svg>
