<svg width="1em" height="1em" viewBox="0 0 18 18" fill="none" xmlns="http://www.w3.org/2000/svg">
<path fill-rule="evenodd" clip-rule="evenodd" d="M5 0C2.23858 0 0 2.23858 0 5V13C0 15.7614 2.23858 18 5 18H13C15.7614 18 18 15.7614 18 13V5C18 2.23858 15.7614 0 13 0H5ZM11.935 10.56C11.935 10.2 11.855 9.86 11.705 9.53C11.555 9.22 11.355 8.94 11.085 8.7C10.555 8.22 9.84504 7.96 9.10504 7.96C8.35504 7.96 7.64504 8.22 7.11504 8.7L7.07504 8.74C7.08504 8.58 7.10504 8.43 7.13504 8.31C7.28504 7.57 7.61504 6.96 8.07504 6.56C8.51504 6.18 9.06504 5.99 9.66504 6.02C9.98504 6.03 10.405 6.16 10.645 6.47C10.815 6.69 11.125 6.73 11.345 6.56C11.565 6.39 11.605 6.08 11.435 5.86C11.055 5.36 10.415 5.05 9.71504 5.02C8.85504 4.98 8.06504 5.25 7.42504 5.8C6.79504 6.35 6.35504 7.15 6.15504 8.11C5.99504 8.89 6.05504 10.18 6.29504 10.91C6.32504 11.14 6.39504 11.37 6.49504 11.59C6.64504 11.9 6.85504 12.18 7.11504 12.42C7.64504 12.9 8.35504 13.17 9.10504 13.17C9.84504 13.17 10.555 12.9 11.085 12.42C11.355 12.18 11.555 11.9 11.705 11.59C11.855 11.27 11.935 10.92 11.935 10.56ZM9.10504 12.17C10.115 12.17 10.935 11.45 10.935 10.56C10.935 9.68 10.115 8.96 9.10504 8.96C8.08504 8.96 7.26504 9.68 7.26504 10.56C7.26504 10.6 7.26504 10.65 7.27504 10.69C7.28504 10.73 7.29504 10.78 7.29504 10.82C7.43504 11.58 8.19504 12.17 9.10504 12.17Z" fill="currentColor"/>
</svg>
