<svg width="18" height="18" viewBox="0 0 18 18" fill="none" xmlns="http://www.w3.org/2000/svg">
<path fill-rule="evenodd" clip-rule="evenodd" d="M5 0C2.23858 0 0 2.23858 0 5V13C0 15.7614 2.23858 18 5 18H13C15.7614 18 18 15.7614 18 13V5C18 2.23858 15.7614 0 13 0H5ZM10.0795 12.54C10.0795 12.81 10.3095 13.04 10.5795 13.04C10.8595 13.04 11.0795 12.81 11.0795 12.54V11.18H11.8295C12.0995 11.18 12.3295 10.95 12.3295 10.68C12.3295 10.4 12.0995 10.18 11.8295 10.18H11.0795V5.61C11.0795 5.4 10.9495 5.21 10.7595 5.14C10.5595 5.07 10.3395 5.12 10.2095 5.28L5.78953 10.35C5.66953 10.5 5.62953 10.71 5.71953 10.89C5.79953 11.06 5.97953 11.18 6.16953 11.18H10.0795V12.54ZM7.26953 10.18H10.0795V6.94L7.26953 10.18Z" fill="white"/>
</svg>
