<svg width="18" height="18" viewBox="0 0 18 18" fill="none" xmlns="http://www.w3.org/2000/svg">
<path fill-rule="evenodd" clip-rule="evenodd" d="M5 0C2.23858 0 0 2.23858 0 5V13C0 15.7614 2.23858 18 5 18H13C15.7614 18 18 15.7614 18 13V5C18 2.23858 15.7614 0 13 0H5ZM6.06504 7.61C6.06504 7.97 6.14504 8.32 6.29504 8.65C6.44504 8.96 6.64504 9.24 6.91504 9.47C7.44504 9.95 8.15504 10.22 8.90504 10.22C9.64504 10.22 10.355 9.95 10.885 9.47C10.89 9.465 10.8975 9.46 10.905 9.455C10.9125 9.45 10.92 9.445 10.925 9.44C10.915 9.6 10.895 9.74 10.875 9.86C10.715 10.61 10.385 11.22 9.92504 11.62C9.48504 12 8.93504 12.19 8.33504 12.16C8.01504 12.14 7.59504 12.02 7.35504 11.71C7.18504 11.49 6.87504 11.45 6.65504 11.62C6.43504 11.78 6.39504 12.1 6.56504 12.32C6.94504 12.81 7.59504 13.13 8.28504 13.16C9.14504 13.2 9.93504 12.93 10.575 12.38C11.215 11.83 11.655 11.03 11.845 10.07C12.005 9.29 11.945 7.99 11.715 7.27C11.675 7.03 11.605 6.8 11.505 6.58C11.355 6.27 11.155 5.99 10.885 5.76C10.355 5.27 9.64504 5.01 8.90504 5.01C8.15504 5.01 7.44504 5.27 6.91504 5.76C6.64504 5.99 6.44504 6.27 6.29504 6.58C6.14504 6.91 6.06504 7.26 6.06504 7.61ZM8.90504 6.01C7.88504 6.01 7.06504 6.73 7.06504 7.61C7.06504 8.5 7.88504 9.22 8.90504 9.22C9.91504 9.22 10.735 8.5 10.735 7.61C10.735 7.57 10.735 7.53 10.725 7.49C10.715 7.44 10.715 7.4 10.715 7.35C10.565 6.59 9.80504 6.01 8.90504 6.01Z" fill="white"/>
</svg>
