<svg width="18" height="18" viewBox="0 0 18 18" fill="none" xmlns="http://www.w3.org/2000/svg">
<path fill-rule="evenodd" clip-rule="evenodd" d="M5 0C2.23858 0 0 2.23858 0 5V13C0 15.7614 2.23858 18 5 18H13C15.7614 18 18 15.7614 18 13V5C18 2.23858 15.7614 0 13 0H5ZM8.96477 12.5C8.96477 12.78 9.18477 13 9.46477 13C9.74477 13 9.96477 12.78 9.96477 12.5V5.63C9.96477 5.47 9.88477 5.32 9.76477 5.23C9.63477 5.14 9.46477 5.11 9.31477 5.16L7.38477 5.76C7.12477 5.84 6.97477 6.12 7.05477 6.39C7.12477 6.6 7.32477 6.74 7.53477 6.74C7.58477 6.74 7.63477 6.73 7.68477 6.71L8.96477 6.31V12.5Z" fill="white"/>
</svg>
