<svg width="18" height="18" viewBox="0 0 18 18" fill="none" xmlns="http://www.w3.org/2000/svg">
<path fill-rule="evenodd" clip-rule="evenodd" d="M5 0C2.23858 0 0 2.23858 0 5V13C0 15.7614 2.23858 18 5 18H13C15.7614 18 18 15.7614 18 13V5C18 2.23858 15.7614 0 13 0H5ZM6.64805 13H11.348C11.628 13 11.848 12.78 11.848 12.5C11.848 12.23 11.628 12 11.348 12H7.93805L10.398 9.76C10.918 9.28 11.258 8.82 11.438 8.35C11.618 7.85 11.588 7.41 11.548 7.13C11.508 6.82 11.408 6.53 11.258 6.27C11.118 6.02 10.928 5.79 10.698 5.61C10.258 5.24 9.68805 5.04 9.08805 5.02C8.47805 5 7.91805 5.18 7.46805 5.52C7.01805 5.87 6.70805 6.37 6.57805 6.97C6.51805 7.24 6.68805 7.5 6.95805 7.56C7.22805 7.62 7.49805 7.45 7.55805 7.18C7.63805 6.81 7.81805 6.51 8.07805 6.31C8.34805 6.11 8.67805 6.01 9.05805 6.02C9.43805 6.03 9.78805 6.16 10.058 6.38C10.338 6.61 10.508 6.91 10.558 7.27C10.598 7.56 10.578 7.78 10.498 8C10.378 8.32 10.128 8.65 9.71805 9.02L6.31805 12.13C6.15805 12.27 6.10805 12.49 6.18805 12.68C6.25805 12.88 6.44805 13 6.64805 13Z" fill="white"/>
</svg>
