<svg width="18" height="18" viewBox="0 0 18 18" fill="none" xmlns="http://www.w3.org/2000/svg">
<path fill-rule="evenodd" clip-rule="evenodd" d="M5 0C2.23858 0 0 2.23858 0 5V13C0 15.7614 2.23858 18 5 18H13C15.7614 18 18 15.7614 18 13V5C18 2.23858 15.7614 0 13 0H5ZM7.46059 12.93C7.53059 12.97 7.61059 12.99 7.69059 12.99C7.87059 12.99 8.04059 12.89 8.13059 12.72L11.7006 5.87C11.7806 5.71 11.7706 5.53 11.6806 5.38C11.5906 5.23 11.4306 5.14 11.2506 5.14H6.75059C6.47059 5.14 6.25059 5.36 6.25059 5.64C6.25059 5.91 6.47059 6.14 6.75059 6.14H10.4306L7.25059 12.26C7.12059 12.5 7.21059 12.81 7.46059 12.93Z" fill="white"/>
</svg>
