<svg width="18" height="18" viewBox="0 0 18 18" fill="none" xmlns="http://www.w3.org/2000/svg">
<path fill-rule="evenodd" clip-rule="evenodd" d="M5 0C2.23858 0 0 2.23858 0 5V13C0 15.7614 2.23858 18 5 18H13C15.7614 18 18 15.7614 18 13V5C18 2.23858 15.7614 0 13 0H5ZM8.82547 13.12H8.93547C9.25547 13.12 9.57547 13.07 9.87547 12.98C10.1955 12.87 10.4855 12.72 10.7455 12.52C11.1755 12.19 11.4755 11.76 11.6355 11.27C11.7955 10.75 11.7755 10.21 11.5755 9.71C11.4255 9.35 11.2255 9.04 10.9755 8.79C10.7455 8.56 10.4755 8.38 10.1755 8.25C9.57547 8.01 8.86547 7.97 8.04547 8.13C7.94547 8.15 7.84547 8.17 7.75547 8.2L7.89547 6.14H11.2355C11.5155 6.14 11.7355 5.92 11.7355 5.64C11.7355 5.36 11.5155 5.14 11.2355 5.14H7.42547C7.16547 5.14 6.94547 5.34 6.92547 5.61L6.70547 8.87C6.69547 9.04 6.77547 9.21 6.91547 9.31C7.05547 9.41 7.24547 9.43 7.40547 9.36C7.40547 9.36 7.76547 9.21 8.23547 9.11C8.66547 9.02 9.28547 8.97 9.79547 9.18C10.1855 9.34 10.4655 9.63 10.6455 10.08C10.7555 10.37 10.7655 10.68 10.6755 10.97C10.5855 11.26 10.3955 11.53 10.1355 11.73C9.78547 12 9.34547 12.14 8.85547 12.12C8.27547 12.1 7.64547 11.86 7.05547 11.42C6.82547 11.26 6.51547 11.31 6.35547 11.53C6.18547 11.75 6.23547 12.06 6.45547 12.23C6.85547 12.51 7.25547 12.74 7.66547 12.89C8.05547 13.03 8.44547 13.11 8.82547 13.12Z" fill="white"/>
</svg>
