<svg width="18" height="18" viewBox="0 0 18 18" fill="none" xmlns="http://www.w3.org/2000/svg">
<path fill-rule="evenodd" clip-rule="evenodd" d="M0 5C0 2.23858 2.23858 0 5 0H13C15.7614 0 18 2.23858 18 5V13C18 15.7614 15.7614 18 13 18H5C2.23858 18 0 15.7614 0 13V5ZM6.14152 13C5.86152 13 5.64152 12.78 5.64152 12.5V6.31L4.36152 6.71C4.31152 6.73 4.26152 6.74 4.21152 6.74C4.00152 6.74 3.80152 6.6 3.73152 6.39C3.65152 6.12 3.80152 5.84 4.06152 5.76L5.99152 5.16C6.14152 5.11 6.31152 5.14 6.44152 5.23C6.56152 5.32 6.64152 5.47 6.64152 5.63V12.5C6.64152 12.78 6.42152 13 6.14152 13ZM9.50199 12.81C9.93199 13.03 10.392 13.15 10.862 13.15C11.342 13.15 11.802 13.03 12.232 12.81C12.642 12.6 13.012 12.3 13.322 11.92C13.942 11.16 14.292 10.15 14.292 9.08C14.292 8.02 13.942 7.01 13.322 6.25C13.012 5.87 12.642 5.57 12.232 5.36C11.802 5.13 11.342 5.02 10.862 5.02C10.392 5.02 9.93199 5.13 9.50199 5.36C9.09199 5.57 8.72199 5.87 8.41199 6.25C7.78199 7.01 7.44199 8.02 7.44199 9.08C7.44199 10.15 7.78199 11.16 8.41199 11.92C8.72199 12.3 9.09199 12.6 9.50199 12.81ZM10.862 6.02C10.242 6.02 9.64199 6.33 9.18199 6.88C8.70199 7.46 8.44199 8.25 8.44199 9.08C8.44199 9.92 8.70199 10.7 9.18199 11.28C9.64199 11.84 10.242 12.15 10.862 12.15C11.492 12.15 12.092 11.84 12.542 11.28C13.022 10.7 13.292 9.92 13.292 9.08C13.292 8.25 13.022 7.46 12.542 6.88C12.092 6.33 11.492 6.02 10.862 6.02Z" fill="white"/>
</svg>
