<svg width="1em" height="1em" viewBox="0 0 18 18" fill="none" xmlns="http://www.w3.org/2000/svg">
<path fill-rule="evenodd" clip-rule="evenodd" d="M5 0C2.23858 0 0 2.23858 0 5V13C0 15.7614 2.23858 18 5 18H13C15.7614 18 18 15.7614 18 13V5C18 2.23858 15.7614 0 13 0H5ZM11.9657 10.74C11.9657 10.4 11.8757 10.07 11.7057 9.77C11.5457 9.48 11.3257 9.23 11.0457 9.02C10.9557 8.95 10.8657 8.89 10.7657 8.83C10.7857 8.82 10.8157 8.8 10.8357 8.78C11.0957 8.58 11.2957 8.35 11.4357 8.09C11.5857 7.81 11.6657 7.51 11.6657 7.2C11.6657 6.89 11.5857 6.59 11.4357 6.31C11.2957 6.05 11.0957 5.82 10.8357 5.63C10.3457 5.24 9.69574 5.03 9.01574 5.03C8.33574 5.03 7.68574 5.24 7.18574 5.63C6.93574 5.82 6.73574 6.05 6.59574 6.31C6.44574 6.59 6.36574 6.89 6.36574 7.2C6.36574 7.51 6.44574 7.81 6.59574 8.09C6.73574 8.35 6.93574 8.58 7.18574 8.78C7.19574 8.785 7.20574 8.7925 7.21574 8.8C7.22574 8.8075 7.23574 8.815 7.24574 8.82C7.14574 8.88 7.04574 8.95 6.95574 9.02C6.66574 9.23 6.44574 9.48 6.28574 9.77C6.11574 10.07 6.03574 10.4 6.03574 10.74C6.03574 11.08 6.11574 11.4 6.28574 11.71C6.44574 11.99 6.66574 12.24 6.95574 12.46C7.50574 12.88 8.22574 13.11 8.99574 13.11C9.76574 13.11 10.4857 12.88 11.0457 12.46C11.3257 12.24 11.5457 11.99 11.7057 11.71C11.8757 11.4 11.9657 11.08 11.9657 10.74ZM7.80574 6.42C7.52574 6.64 7.36574 6.91 7.36574 7.2C7.36574 7.49 7.52574 7.77 7.80574 7.99C8.12574 8.24 8.55574 8.37 9.01574 8.37C9.47574 8.37 9.90574 8.24 10.2257 7.99C10.5057 7.77 10.6657 7.49 10.6657 7.2C10.6657 6.91 10.5057 6.64 10.2257 6.42C9.90574 6.17 9.47574 6.03 9.01574 6.03C8.55574 6.03 8.12574 6.17 7.80574 6.42ZM10.4357 11.66C10.7757 11.4 10.9657 11.08 10.9657 10.74C10.9657 10.4 10.7757 10.07 10.4357 9.82C10.0557 9.53 9.54574 9.37 8.99574 9.37C8.44574 9.37 7.93574 9.53 7.55574 9.82C7.21574 10.07 7.03574 10.4 7.03574 10.74C7.03574 11.08 7.21574 11.4 7.55574 11.66C7.93574 11.95 8.44574 12.11 8.99574 12.11C9.54574 12.11 10.0557 11.95 10.4357 11.66Z" fill="currentColor"/>
</svg>
