<svg width="1em" height="1em" viewBox="0 0 18 18" fill="none" xmlns="http://www.w3.org/2000/svg">
<path fill-rule="evenodd" clip-rule="evenodd" d="M5 0C2.23858 0 0 2.23858 0 5V13C0 15.7614 2.23858 18 5 18H13C15.7614 18 18 15.7614 18 13V5C18 2.23858 15.7614 0 13 0H5ZM8.71012 13.11H8.83012C9.27012 13.11 10.3101 12.97 11.0201 12.32C11.2301 12.12 11.3901 11.89 11.5101 11.63C11.6401 11.34 11.7001 11.03 11.7001 10.69C11.7001 10.34 11.6401 10.03 11.5201 9.75C11.4001 9.49 11.2401 9.25 11.0201 9.06C10.6401 8.7 10.1001 8.47 9.43012 8.36L11.6001 5.98C11.7401 5.83 11.7701 5.62 11.6901 5.44C11.6101 5.26 11.4301 5.14 11.2301 5.14H7.02012C6.74012 5.14 6.52012 5.36 6.52012 5.64C6.52012 5.92 6.74012 6.14 7.02012 6.14H10.1001L7.98012 8.47C7.84012 8.62 7.81012 8.84 7.90012 9.03C7.99012 9.21 8.19012 9.32 8.39012 9.3C8.39206 9.3 8.397 9.29981 8.40474 9.29952C8.47679 9.29678 8.79083 9.28485 9.17012 9.33C9.53012 9.38 10.0301 9.5 10.3501 9.8C10.5901 10.02 10.7001 10.31 10.7001 10.69C10.7001 11.06 10.5801 11.35 10.3301 11.58C10.0701 11.83 9.71012 11.96 9.45012 12.02C9.12012 12.11 8.85012 12.11 8.78012 12.11C8.76012 12.11 8.74012 12.1075 8.72012 12.105C8.70012 12.1025 8.68012 12.1 8.66012 12.1C8.66012 12.1 8.38012 12.09 8.04012 11.94C7.67012 11.79 7.39012 11.56 7.18012 11.25C7.03012 11.02 6.72012 10.96 6.49012 11.11C6.26012 11.27 6.20012 11.58 6.35012 11.81C6.66012 12.27 7.11012 12.64 7.65012 12.86C8.14012 13.07 8.54012 13.1 8.62012 13.1C8.64012 13.1 8.67012 13.1 8.71012 13.11Z" fill="currentColor"/>
</svg>
