<svg width="1em" height="1em" viewBox="0 0 16 16" fill="none" xmlns="http://www.w3.org/2000/svg">
<path d="M13.3334 2.66665V9.69331C13.8418 9.98683 14.2391 10.4399 14.4637 10.9822C14.6884 11.5246 14.7278 12.1259 14.5758 12.6929C14.4239 13.2599 14.0891 13.761 13.6234 14.1183C13.1577 14.4757 12.5871 14.6694 12 14.6694C11.413 14.6694 10.8424 14.4757 10.3767 14.1183C9.91096 13.761 9.57617 13.2599 9.42424 12.6929C9.27231 12.1259 9.31172 11.5246 9.53636 10.9822C9.76101 10.4399 10.1583 9.98683 10.6667 9.69331V2.66665C10.6667 2.31302 10.8072 1.97389 11.0572 1.72384C11.3073 1.47379 11.6464 1.33331 12 1.33331C12.3537 1.33331 12.6928 1.47379 12.9429 1.72384C13.1929 1.97389 13.3334 2.31302 13.3334 2.66665Z" stroke="currentColor" stroke-width="1.33333" stroke-linecap="round" stroke-linejoin="round"/>
<path d="M8.5 2H3.33333C2.97971 2 2.64057 2.14048 2.39052 2.39052C2.14048 2.64057 2 2.97971 2 3.33333V10C2 10.3536 2.14048 10.6928 2.39052 10.9428C2.64057 11.1929 2.97971 11.3333 3.33333 11.3333H6H7.33333" stroke="currentColor" stroke-width="1.33333" stroke-linecap="round" stroke-linejoin="round"/>
<path d="M6 14L7.33334 14" stroke="currentColor" stroke-width="1.33333" stroke-linecap="round" stroke-linejoin="round"/>
</svg>
